<svg xmlns="http://www.w3.org/2000/svg" xmlns:xlink="http://www.w3.org/1999/xlink" viewBox="-2637 -1427 1988 2741"><defs><style>.a{clip-path:url(#e);}.b{fill:url(#a);}.af,.c,.d,.i{fill:#fff;}.c{stroke:#7093ab;stroke-width:33px;}.d{stroke:#4aaaee;stroke-width:10px;}.ac,.e,.r,.z{fill:#95989a;}.e{font-size:54px;}.e,.r{font-family:TrajanPro-Regular, Trajan Pro;}.f,.s{fill:#f6f6f6;}.aa,.f,.z{font-size:28px;}.aa,.ac,.f,.g,.i,.s,.y,.z{font-family:SegoeUI, Segoe UI;}.g,.k{fill:#4aaaee;}.g{font-size:35px;}.h{fill:url(#b);}.i{font-size:44px;}.j,.o{fill:#e4ef50;}.j{font-size:55px;}.j,.l,.n,.p{font-family:SegoeUI-Bold, Segoe UI;font-weight:700;}.k,.o,.q{stroke:#95989a;}.l,.p{fill:#f9fdff;}.l{font-size:33px;}.m{fill:#f5f5f5;font-size:77px;font-family:SegoeUIBlack-Italic, Segoe UI;font-style:italic;}.n{fill:#f6f600;font-size:69px;}.p{font-size:36px;}.q,.x{fill:#454848;}.r{font-size:43px;}.s{font-size:18px;}.t{fill:#200820;}.u{fill:#100410;}.v{fill:#100510;}.w{fill:#130a0a;}.y{fill:#efefef;font-size:29px;}.aa{fill:#169df6;}.ab{fill:url(#c);}.ac{font-size:20px;}.ad{stroke:none;}.ae{fill:none;}</style><pattern id="a" preserveAspectRatio="xMidYMid slice" width="100%" height="100%" viewBox="0 0 3000 1962"><image width="3000" height="1962" xlink:href="../images/grouptechhands.jpg"/></pattern><pattern id="b" preserveAspectRatio="xMidYMid slice" width="100%" height="100%" viewBox="0 0 3260 1899"><image width="3260" height="1899" xlink:href="../images/spacetech.jpg"/></pattern><pattern id="c" preserveAspectRatio="none" width="100%" height="100%" viewBox="0 0 256 256"><image width="256" height="256" xlink:href="../images/if_46-facebook_104458.png"/></pattern><clipPath id="e"><rect x="-2637" y="-1427" width="1988" height="2741"/></clipPath><image id="f" width="92.7" height="92.7" xlink:href="../images/if_github-2048-black_167707.png"/></defs><g id="d" class="a"><rect class="af" x="-2637" y="-1427" width="1988" height="2741"/><path class="b" d="M136.2,241.5H2146.6l26.3,1241H128.6Z" transform="translate(-2773 -597)"/><g transform="translate(-2637 -1427)"><g transform="translate(39 8)"><g transform="translate(0 -8)"><g class="c" transform="translate(24 24)"><circle class="ad" cx="44" cy="44" r="44"/><circle class="ae" cx="44" cy="44" r="27.5"/></g><g class="d" transform="translate(36.138 34.441)"><ellipse class="ad" cx="32.621" cy="32.068" rx="32.621" ry="32.068"/><ellipse class="ae" cx="32.621" cy="32.068" rx="27.621" ry="27.068"/></g></g><text class="e" transform="translate(128 82)"><tspan x="0" y="0">Code Community</tspan></text></g><text class="f" transform="translate(230 124)"><tspan x="0" y="0">Saranathan College of Engineering</tspan></text></g><g transform="translate(-2637 -1427)"><text class="g" transform="translate(15 327)"><tspan x="0" y="0" xml:space="preserve">  Login </tspan></text><text class="g" transform="translate(15 229)"><tspan x="0" y="0" xml:space="preserve"> Register</tspan></text><text class="g" transform="translate(14 427)"><tspan x="0" y="0" xml:space="preserve">  About</tspan></text></g><g transform="translate(-2637 -1427)"><g transform="translate(150)"><path class="h" d="M65.1,185.2,1838.144-3.4V1071.5H-161.3Z" transform="translate(0)"/></g></g><g transform="translate(-2603 -1360)"><text class="i" transform="translate(471.3 269)"><tspan x="0" y="47"></tspan><tspan x="0" y="117" xml:space="preserve">          </tspan><tspan class="j" y="117">STEP UP YOUR CODING GAME</tspan><tspan x="0" y="178" xml:space="preserve">    The new way to improve your programming   </tspan><tspan x="0" y="236" xml:space="preserve">        Skills while having fun and getting noticed                      </tspan></text><g transform="translate(136.3 -5)"><g class="k" transform="translate(471.4 583.46)"><rect class="ad" width="352.2" height="85.84" rx="31"/><rect class="ae" x="0.5" y="0.5" width="351.2" height="84.84" rx="30.5"/></g><text class="l" transform="translate(540.634 635)"><tspan x="0" y="0">GET STARTED</tspan></text></g><g transform="translate(547.9 6)"><g transform="translate(504.4 572.46)"><g class="k"><rect class="ad" width="220.8" height="85.84" rx="31"/><rect class="ae" x="0.5" y="0.5" width="219.8" height="84.84" rx="30.5"/></g><text class="l" transform="translate(51.232 56.54)"><tspan x="0" y="0">LOGIN</tspan></text></g></g></g><g transform="translate(-2571 -1354)"><text class="m" transform="translate(316 1189)"><tspan x="0" y="0">We&apos;re smarter together</tspan></text><g transform="translate(-73)"><g transform="translate(-38)"><text class="n" transform="translate(484 1300)"><tspan x="0" y="0">Belong</tspan></text><text class="i" transform="translate(557 1392)"><tspan x="0" y="0">We&apos;re developers just like you.</tspan><tspan x="0" y="58">Join the community and feel at home.</tspan></text></g><g transform="translate(-34 273)"><text class="n" transform="translate(480 1296)"><tspan x="0" y="0">Get insights</tspan></text><text class="i" transform="translate(523 1399)"><tspan x="0" y="0">Meet like-minded enthusiasts, ask for help and have</tspan><tspan x="0" y="58" xml:space="preserve"> your code reviewed. We&apos;re here for each other.</tspan></text></g><g transform="translate(-22 527)"><text class="n" transform="translate(468 1301)"><tspan x="0" y="0">Be inspired</tspan></text><text class="i" transform="translate(512 1399)"><tspan x="0" y="0">Compare solutions and learn tips from the best programmers.</tspan></text></g></g><g transform="translate(82.3 1423.84)"><g class="o" transform="translate(496.4 589.46)"><rect class="ad" width="600.3" height="94.3" rx="31"/><rect class="ae" x="0.5" y="0.5" width="599.3" height="93.3" rx="30.5"/></g><text class="p" transform="translate(597.7 649.101)"><tspan x="0" y="0">JOIN THE COMMUNITY</tspan></text></g></g><g transform="translate(-2637 -1447)"><g class="q" transform="translate(0 2312)"><rect class="ad" width="1988" height="448"/><rect class="ae" x="0.5" y="0.5" width="1987" height="447"/></g><g transform="translate(19.7 2403.2)"><g transform="translate(56.1 9.9)"><g transform="translate(0 0)"><g class="c"><ellipse class="ad" cx="56.005" cy="61.358" rx="56.005" ry="61.358"/><ellipse class="ae" cx="56.005" cy="61.358" rx="39.505" ry="44.858"/></g><g class="d" transform="translate(15.45 14.56)"><ellipse class="ad" cx="41.521" cy="44.719" rx="41.521" ry="44.719"/><ellipse class="ae" cx="41.521" cy="44.719" rx="36.521" ry="39.719"/></g></g><text class="r" transform="translate(132.376 67.863)"><tspan x="0" y="0">Code Community</tspan></text></g><text class="s" transform="translate(246.878 128.096)"><tspan x="0" y="0">Saranathan College of Engineering</tspan></text><text class="s" transform="translate(265.311 176.455)"><tspan x="0" y="0">© 2018 dotCodeCommunity</tspan></text></g><g transform="translate(-41 -10)"><g transform="translate(865.1 2464)"><use transform="translate(72.604 0)" xlink:href="#f"/><image width="72.1" height="72.1" transform="translate(0 10.3)" xlink:href="../images/if_46-facebook_104458.png"/><g transform="translate(176.131 16.308)"><path class="t" d="M49.769,41.93a6.1,6.1,0,0,0-7.842,3.154,6.791,6.791,0,0,0-.159,5.384A6.373,6.373,0,0,0,53.746,49.2C54.417,46.41,52.339,43.064,49.769,41.93Z" transform="translate(-14.491 -14.529)"/><path class="u" d="M50.2,27.936c-4.992-.175-9.979.053-14.973.188-6.415.172-7.686,7.445-7.551,13.082.022.928,0,1.877-.029,2.836-.147,4.46-.025,12.306,4.21,14.606a11.149,11.149,0,0,0,5.76.906c2.316-.087,4.614-.1,6.93.023a33.643,33.643,0,0,0,9.624-.467c4.423-1.054,5.184-3.249,5.5-7.187.136-1.72,0-3.792.012-5.921.029-4.639,1.054-12.835-2.969-16.3C54.951,28.186,52.419,28.015,50.2,27.936ZM48.915,52.354c-5.279,3.783-13.061.679-14.854-5.364a9,9,0,0,1-.28-1.266c-.457-3.1.831-8.121,3.908-10.033,6.138-3.814,11.236-1.017,13.42,1.589a11.412,11.412,0,0,1,2.348,5.213C54.078,46.256,51.924,50.2,48.915,52.354Zm5.646-16.3c-1.371.42-3.425-1.036-2.446-3.474.514-1.28,1.806-1.626,3.345-.8C56.668,32.434,56.854,35.352,54.56,36.053Z" transform="translate(-10.602 -10.668)"/><path class="v" d="M36.87,3.84A33.046,33.046,0,1,0,69.9,36.886,33.038,33.038,0,0,0,36.87,3.84ZM56.245,37.009c.052,2.5-.1,5-.034,7.5.126,4.534-1.509,8.906-6.085,10.7-5.55,2.172-12.316.977-18.134.977-2.519,0-5.109.2-7.527-.516a9.037,9.037,0,0,1-4.324-3.033,6.551,6.551,0,0,1-1.262-2.083c-1.489-3.822-1.2-7.331-1.368-11.353-.1-2.3-.053-4.6-.031-6.9.03-3.144.008-5.957,1.164-8.934,1.168-3.008,5.173-5.38,8.278-5.584,6.369-.417,13.077-.97,19.408.048a12.1,12.1,0,0,1,6.922,3.091c2.338,2.431,2.909,5.9,3.015,9.4C56.338,32.641,56.2,34.972,56.245,37.009Z" transform="translate(-3.84 -3.84)"/></g></g><g transform="translate(1126.247 2486.405)"><path class="w" d="M77.57,15.765s-.764-5.345-3.113-7.7a11.247,11.247,0,0,0-7.85-3.278C55.641,4,39.194,4,39.194,4h-.037s-16.447,0-27.41.788A11.251,11.251,0,0,0,3.9,8.066C1.55,10.42.784,15.765.784,15.765A115.933,115.933,0,0,0,0,28.308v5.879A115.891,115.891,0,0,0,.784,46.733s.764,5.343,3.113,7.692c2.983,3.085,6.895,2.992,8.639,3.314,6.268.6,26.641.779,26.641.779s16.464-.027,27.43-.806a11.294,11.294,0,0,0,7.85-3.285c2.346-2.349,3.113-7.692,3.113-7.692a115.948,115.948,0,0,0,.784-12.546V28.311A115.948,115.948,0,0,0,77.57,15.765Z" transform="translate(0 -4)"/><path class="x" d="M12,10V37.259L36.493,23.63Z" transform="translate(17.392 3.63)"/></g></g><text class="y" transform="translate(1327 2466)"><tspan x="0" y="0">About</tspan></text><text class="z" transform="translate(1327 2518)"><tspan x="0" y="0">About dCC</tspan><tspan x="0" y="37">Support Us</tspan><tspan x="0" y="74">Team</tspan></text><text class="y" transform="translate(1710 2466)"><tspan x="0" y="0">Developed by :-</tspan></text><text class="aa" transform="translate(1710 2518)"><tspan x="0" y="0" xml:space="preserve">    Thayalan G R</tspan><tspan x="0" y="37">(C.S.E Dept - SCE)</tspan></text><g transform="translate(818.9 113)"><g transform="translate(865.1 2464)"><use transform="translate(59.366 0) scale(0.818)" xlink:href="#f"/><rect class="ab" width="56.954" height="57.954" transform="translate(1 10.167)"/><g transform="translate(136.018 10.167)"><path class="t" d="M48.223,41.871a4.873,4.873,0,0,0-6.412,2.75,6.283,6.283,0,0,0-.13,4.694,5.116,5.116,0,0,0,9.794-1.1A6.176,6.176,0,0,0,48.223,41.871Z" transform="translate(-19.377 -17.977)"/><path class="u" d="M46.083,27.928c-4.082-.153-8.16.046-12.243.164-5.245.15-6.284,6.492-6.174,11.407.018.809,0,1.637-.024,2.473-.12,3.889-.02,10.731,3.443,12.737a8.61,8.61,0,0,0,4.71.79c1.894-.076,3.773-.083,5.667.02a25.826,25.826,0,0,0,7.869-.407c3.616-.919,4.238-2.834,4.495-6.267.111-1.5,0-3.307.01-5.163.024-4.045.862-11.192-2.428-14.212C49.967,28.146,47.9,28,46.083,27.928ZM45.031,49.22c-4.317,3.3-10.68.592-12.146-4.677a8.3,8.3,0,0,1-.229-1.1c-.373-2.707.679-7.082,3.2-8.748,5.019-3.325,9.187-.886,10.973,1.385a10.275,10.275,0,0,1,1.92,4.546A9.529,9.529,0,0,1,45.031,49.22Zm4.616-14.214c-1.121.366-2.8-.9-2-3.03.421-1.116,1.477-1.418,2.735-.695A2.227,2.227,0,0,1,49.647,35.006Z" transform="translate(-13.704 -12.87)"/><path class="v" d="M30.848,3.84C15.932,3.84,3.84,16.741,3.84,32.656S15.932,61.472,30.848,61.472s27.008-12.9,27.008-28.816S45.764,3.84,30.848,3.84ZM46.69,32.763c.042,2.181-.085,4.36-.028,6.544.1,3.954-1.234,7.766-4.976,9.328-4.538,1.894-10.071.852-14.828.852a20.27,20.27,0,0,1-6.155-.45,7.41,7.41,0,0,1-3.536-2.644,5.8,5.8,0,0,1-1.032-1.817c-1.218-3.333-.984-6.392-1.119-9.9-.078-2-.043-4.012-.026-6.018a22.207,22.207,0,0,1,.952-7.79c.955-2.623,4.23-4.691,6.769-4.869,5.208-.363,10.693-.846,15.869.042a9.615,9.615,0,0,1,5.66,2.695c1.912,2.12,2.378,5.149,2.466,8.193C46.767,28.955,46.657,30.987,46.69,32.763Z" transform="translate(-3.84 -3.84)"/></g></g><g transform="translate(1067.632 2475.115)"><path class="w" d="M63.427,15.612s-.625-5.276-2.545-7.6a8.4,8.4,0,0,0-6.419-3.235C45.5,4,32.048,4,32.048,4h-.03S18.569,4,9.605,4.778A8.4,8.4,0,0,0,3.186,8.014c-1.919,2.323-2.545,7.6-2.545,7.6S0,21.8,0,27.994v5.8c0,6.2.641,12.384.641,12.384s.625,5.274,2.545,7.592c2.439,3.045,5.638,2.953,7.064,3.271,5.125.587,21.784.769,21.784.769s13.462-.027,22.429-.8a8.434,8.434,0,0,0,6.419-3.242c1.919-2.318,2.545-7.592,2.545-7.592s.641-6.191.641-12.384V28C64.067,21.8,63.427,15.612,63.427,15.612Z" transform="translate(0 -4)"/><path class="x" d="M12,10V36.906L32.027,23.453Z" transform="translate(12.033 3.453)"/></g></g><text class="ac" transform="translate(826 2717)"><tspan x="0" y="0" xml:space="preserve">       Released under the MIT License</tspan><tspan x="0" y="27" xml:space="preserve">   Copyright © 2018-2020 ThayalanGR</tspan></text></g></g></svg>