<?xml version="1.0" ?><!DOCTYPE svg  PUBLIC '-//W3C//DTD SVG 1.1//EN'  'http://www.w3.org/Graphics/SVG/1.1/DTD/svg11.dtd'><svg enable-background="new 0 0 100 100" height="100px" id="Layer_1" version="1.1" viewBox="0 0 100 100" width="100px" xml:space="preserve" xmlns="http://www.w3.org/2000/svg" xmlns:xlink="http://www.w3.org/1999/xlink"><g><path d="M53.141,42.115c-4.122-1.816-9.202,0.339-10.959,4.406c-1.147,2.655-1.159,5.322-0.222,7.52   c1.176,2.759,3.846,4.778,7.641,5.111c4.358,0.381,8.094-2.707,9.098-6.879C59.636,48.373,56.732,43.698,53.141,42.115z" fill="#D162D1"/><path d="M59.181,27.961c-6.976-0.245-13.946,0.074-20.925,0.262c-8.965,0.24-10.741,10.399-10.552,18.273   c0.031,1.296,0.004,2.622-0.041,3.962c-0.205,6.23-0.035,17.19,5.884,20.403c2.433,1.322,5.357,1.365,8.05,1.265   c3.237-0.122,6.448-0.133,9.685,0.032c4.521,0.23,8.993,0.408,13.45-0.652c6.181-1.472,7.244-4.539,7.682-10.039   c0.19-2.402-0.003-5.297,0.017-8.271c0.041-6.48,1.473-17.928-4.149-22.767C65.818,28.311,62.279,28.072,59.181,27.961z    M57.382,62.07c-7.378,5.284-18.253,0.948-20.759-7.492c-0.17-0.571-0.302-1.16-0.391-1.768   c-0.638-4.336,1.161-11.344,5.461-14.014c8.578-5.327,15.702-1.42,18.755,2.219c1.643,1.96,2.86,4.731,3.282,7.282   C64.598,53.552,61.588,59.056,57.382,62.07z M65.272,39.3c-1.916,0.587-4.787-1.447-3.419-4.853   c0.719-1.788,2.524-2.271,4.674-1.113C68.217,34.245,68.478,38.32,65.272,39.3z" fill="#D162D1"/><path d="M50,3.84C24.506,3.84,3.84,24.506,3.84,50S24.506,96.16,50,96.16S96.16,75.494,96.16,50   S75.494,3.84,50,3.84z M77.077,50.172c0.072,3.494-0.145,6.985-0.048,10.483c0.176,6.334-2.109,12.44-8.504,14.942   c-7.756,3.034-17.212,1.365-25.343,1.365c-3.521,0-7.14,0.281-10.519-0.721c-2.585-0.768-4.252-2.23-6.043-4.236   c-0.806-0.902-1.332-1.806-1.763-2.91c-2.081-5.339-1.681-10.24-1.912-15.858c-0.133-3.21-0.074-6.427-0.044-9.641   c0.042-4.392,0.011-8.321,1.627-12.479c1.632-4.202,7.229-7.515,11.569-7.8c8.901-0.582,18.275-1.355,27.123,0.067   c3.489,0.561,7.165,1.709,9.673,4.317c3.268,3.396,4.065,8.248,4.214,13.125C77.207,44.071,77.019,47.326,77.077,50.172z" fill="#D162D1"/></g></svg>